<svg xmlns="http://www.w3.org/2000/svg" viewBox="0 0 362.82 26.91"><defs><style>.cls-1{fill:#1b6028;}</style></defs><g id="Camada_2" data-name="Camada 2"><g id="Camada_1-2" data-name="Camada 1"><path class="cls-1" d="M29.66,12.07v-.75h-.72a14.79,14.79,0,0,0-2.31.18,5.67,5.67,0,0,0-2.94-3.75,4.26,4.26,0,0,0,1.6-2.29,4.34,4.34,0,0,0,1.47.26V4.3A2.9,2.9,0,0,1,25.44,4a4.29,4.29,0,0,0-8.56,0,2.78,2.78,0,0,1-1.36.35V5.73A4.29,4.29,0,0,0,17,5.46a4.28,4.28,0,0,0,1.59,2.29,6.7,6.7,0,0,0-1.06.7A3.54,3.54,0,0,0,12,8.4a5.23,5.23,0,0,0-1-.64A4.28,4.28,0,0,0,12.77,4.3a4.39,4.39,0,0,0-.26-1.46h1.57V1.41H11.64a4.27,4.27,0,0,0-6.34,0H2.85V2.84H4.43A4.39,4.39,0,0,0,4.17,4.3,4.28,4.28,0,0,0,5.94,7.76,5.7,5.7,0,0,0,3,11.51a14.22,14.22,0,0,0-2.28-.18l-.72,0v.76A14.86,14.86,0,0,0,14.16,26.88v0H15.5v0A14.85,14.85,0,0,0,29.66,12.07ZM18.3,4.35a4.29,4.29,0,0,0,2.84-2.91h0A4.31,4.31,0,0,0,24,4.36c0,.09,0,.19,0,.29l0,0,0,0a2.87,2.87,0,0,1-2.8,2.45h-.06A2.87,2.87,0,0,1,18.3,4.35Zm2.84,4.24h.05a4.2,4.2,0,0,1,4,3.22,14.93,14.93,0,0,0-6.46,3.62,4.37,4.37,0,0,0-1.78-2,3.6,3.6,0,0,0,.93-1.15,4.18,4.18,0,0,0,1.85.42V11.23a2.81,2.81,0,0,1-1.47-.41,1.21,1.21,0,0,0,0-.19,3.12,3.12,0,0,0-.1-.82A4.19,4.19,0,0,1,21.14,8.59ZM16.68,9.75a2,2,0,0,1,.2.88,2.12,2.12,0,0,1-4.24,0,2.07,2.07,0,0,1,.18-.86,3.57,3.57,0,0,0,1.94-1.26h.08A3.63,3.63,0,0,0,16.68,9.75ZM14.8,14.22a2.88,2.88,0,0,1,2.81,2.29l0,.13a14.85,14.85,0,0,0-2.8,5.1A14.91,14.91,0,0,0,12,16.59l0-.19A2.87,2.87,0,0,1,14.8,14.22ZM5.61,4.3A2.88,2.88,0,0,1,6,2.84h4.92A2.86,2.86,0,0,1,8.5,7.16H8.44A2.87,2.87,0,0,1,5.61,4.3ZM8.44,8.59h.05a4.16,4.16,0,0,1,2.83,1.13,3.84,3.84,0,0,0-.12.91c0,.09,0,.19,0,.29a2.89,2.89,0,0,1-1.3.31v1.43a4.36,4.36,0,0,0,1.71-.35,3.56,3.56,0,0,0,.93,1.11,4.32,4.32,0,0,0-1.71,2A14.84,14.84,0,0,0,4.4,11.8,4.22,4.22,0,0,1,8.44,8.59Zm-7,4.19a13.42,13.42,0,0,1,12.6,12.66A13.42,13.42,0,0,1,1.45,12.78ZM15.61,25.44a13.44,13.44,0,0,1,12.6-12.66A13.42,13.42,0,0,1,15.61,25.44Z"/><path class="cls-1" d="M38.68,5.36H49.35L49,7.62H45L43.21,18.35H40.5L42.28,7.62h-4Z"/><path class="cls-1" d="M47.9,13.52a5.64,5.64,0,0,1,5.56-5c2.59,0,4.31,1.64,3.76,4.95l-.12.74H50.46v.07c-.25,1.53.44,2.28,1.83,2.28a2.22,2.22,0,0,0,2.06-1.13l2.47.17a4.94,4.94,0,0,1-4.91,3C48.9,18.54,47.38,16.61,47.9,13.52Zm6.92-1a1.57,1.57,0,0,0-1.63-2,2.57,2.57,0,0,0-2.42,2Z"/><path class="cls-1" d="M58.59,13.52a5.62,5.62,0,0,1,5.62-5c2.54,0,4,1.48,3.73,3.73H65.39a1.42,1.42,0,0,0-1.49-1.62c-1.27,0-2.27,1.05-2.57,2.89s.33,2.92,1.6,2.92A2.15,2.15,0,0,0,65,14.78h2.55a4.84,4.84,0,0,1-5,3.76C59.55,18.54,58.09,16.48,58.59,13.52Z"/><path class="cls-1" d="M71.38,18.35h-2.7L70.3,8.61h2.57l-.28,1.71h.11a3.56,3.56,0,0,1,3.24-1.84c2,0,3.14,1.39,2.76,3.67l-1,6.2H75l1-5.72c.2-1.2-.32-1.91-1.41-1.91a2.21,2.21,0,0,0-2.19,2Z"/><path class="cls-1" d="M80.19,13.47a5.55,5.55,0,0,1,5.58-5c3,0,4.48,2,4,5.07a5.58,5.58,0,0,1-5.58,5C81.2,18.54,79.69,16.5,80.19,13.47Zm6.85,0c.26-1.68-.21-2.92-1.54-2.92s-2.31,1.28-2.59,3,.2,2.91,1.54,2.91S86.75,15.18,87,13.46Z"/><path class="cls-1" d="M93.43,18.35h-2.7l2.15-13h2.71Z"/><path class="cls-1" d="M96,13.47a5.55,5.55,0,0,1,5.58-5c3,0,4.48,2,4,5.07a5.58,5.58,0,0,1-5.58,5C97,18.54,95.51,16.5,96,13.47Zm6.84,0c.27-1.68-.2-2.92-1.53-2.92s-2.31,1.28-2.59,3,.2,2.91,1.54,2.91S102.57,15.18,102.85,13.46Z"/><path class="cls-1" d="M106.3,19.49l2.56-.34c.14.6.63,1.11,1.83,1.11A2.11,2.11,0,0,0,113,18.41l.29-1.79h-.11a3.43,3.43,0,0,1-3,1.59c-2.19,0-3.7-1.51-3.17-4.75s2.64-5,4.78-5a2.37,2.37,0,0,1,2.49,1.76h.1l.27-1.63h2.68l-1.63,9.83c-.4,2.5-2.59,3.77-5.36,3.77S106.39,21,106.3,19.49Zm7.56-6c.28-1.71-.3-2.82-1.61-2.82s-2.22,1.16-2.48,2.82.24,2.73,1.57,2.73S113.58,15.17,113.86,13.45Z"/><path class="cls-1" d="M119.48,8.61h2.7l-1.62,9.74h-2.71ZM119.8,6a1.62,1.62,0,0,1,1.61-1.37A1.24,1.24,0,0,1,122.72,6a1.64,1.64,0,0,1-1.62,1.37A1.24,1.24,0,0,1,119.8,6Z"/><path class="cls-1" d="M122.71,15.63c.37-2.17,2.2-2.82,4.16-3,1.71-.17,2.4-.26,2.52-.88v0c.12-.79-.31-1.26-1.22-1.26a2,2,0,0,0-1.95,1.12l-2.46-.2a4.72,4.72,0,0,1,4.73-2.89c2.16,0,4,1,3.59,3.3L131,18.35h-2.56l.22-1.35h-.07a3.61,3.61,0,0,1-3.1,1.53C123.61,18.53,122.4,17.55,122.71,15.63Zm6.17-.76.16-1a7.24,7.24,0,0,1-1.93.44c-1,.13-1.68.51-1.8,1.27s.4,1.13,1.24,1.13A2.29,2.29,0,0,0,128.88,14.87Z"/><path class="cls-1" d="M139.88,11.54a1.22,1.22,0,0,0-1.37-1.15c-.89,0-1.68.46-1.77,1.09-.08.41.16.68,1,.87l1.71.35c1.82.39,2.65,1.28,2.41,2.75-.31,1.87-2.27,3.09-4.74,3.09-2.65,0-4.07-1.17-4-3l2.64-.14c0,.79.58,1.2,1.48,1.2s1.79-.47,1.89-1.11c.06-.44-.23-.69-1.06-.87l-1.62-.33c-1.85-.38-2.65-1.38-2.4-2.9.31-1.82,2.07-2.9,4.5-2.9s3.84,1.11,3.77,2.9Z"/><path class="cls-1" d="M148.91,8.61h2.66l-.27,1.63h.12a3.49,3.49,0,0,1,3.06-1.76c2.14,0,3.66,1.66,3.11,5s-2.57,5-4.79,5a2.31,2.31,0,0,1-2.46-1.72h-.11L149.37,22h-2.71Zm3.41,7.75c1.31,0,2.22-1.18,2.51-2.88s-.24-2.85-1.58-2.85-2.24,1.11-2.51,2.85S151,16.36,152.32,16.36Z"/><path class="cls-1" d="M158.58,15.63c.36-2.17,2.2-2.82,4.16-3,1.7-.17,2.39-.26,2.51-.88v0c.13-.79-.31-1.26-1.22-1.26a2.06,2.06,0,0,0-1.95,1.12l-2.46-.2a4.72,4.72,0,0,1,4.73-2.89c2.16,0,4,1,3.59,3.3l-1.1,6.57h-2.56l.23-1.35h-.08a3.61,3.61,0,0,1-3.1,1.53C159.48,18.53,158.26,17.55,158.58,15.63Zm6.16-.76.17-1a7.32,7.32,0,0,1-1.94.44c-1,.13-1.68.51-1.8,1.27s.4,1.13,1.24,1.13A2.29,2.29,0,0,0,164.74,14.87Z"/><path class="cls-1" d="M170.56,8.61h2.62l-.28,1.7h.1a2.91,2.91,0,0,1,2.65-1.84,3.64,3.64,0,0,1,.83.09l-.4,2.4a4.36,4.36,0,0,0-1.13-.15,2.42,2.42,0,0,0-2.4,2l-.91,5.51h-2.7Z"/><path class="cls-1" d="M176,15.63c.37-2.17,2.2-2.82,4.16-3,1.71-.17,2.4-.26,2.51-.88v0c.13-.79-.3-1.26-1.21-1.26a2,2,0,0,0-1.95,1.12l-2.46-.2a4.72,4.72,0,0,1,4.73-2.89c2.16,0,4,1,3.58,3.3l-1.09,6.57h-2.57l.23-1.35h-.08a3.61,3.61,0,0,1-3.1,1.53C176.88,18.53,175.66,17.55,176,15.63Zm6.17-.76.16-1a7.24,7.24,0,0,1-1.93.44c-1,.13-1.69.51-1.81,1.27s.4,1.13,1.25,1.13A2.3,2.3,0,0,0,182.15,14.87Z"/><path class="cls-1" d="M190.28,18.45l6.64-13h3.54l2.32,13h-2.94l-.47-3h-4.69l-1.46,3Zm8.75-5.1-.77-4.92h-.1l-2.42,4.92Z"/><path class="cls-1" d="M203.59,19.6l2.56-.34c.14.6.63,1.11,1.83,1.11a2.12,2.12,0,0,0,2.34-1.86l.29-1.78h-.11a3.44,3.44,0,0,1-3,1.58c-2.19,0-3.7-1.51-3.17-4.75s2.64-5,4.78-5a2.34,2.34,0,0,1,2.48,1.77h.11l.27-1.64h2.68L213,18.55c-.4,2.5-2.59,3.76-5.36,3.76S203.68,21.13,203.59,19.6Zm7.56-6.05c.28-1.71-.3-2.82-1.61-2.82s-2.22,1.16-2.48,2.82.24,2.73,1.57,2.73S210.87,15.27,211.15,13.55Z"/><path class="cls-1" d="M216.77,8.71h2.62l-.29,1.7h.1a2.93,2.93,0,0,1,2.66-1.84,3.7,3.7,0,0,1,.83.09l-.41,2.4a4.32,4.32,0,0,0-1.12-.14,2.43,2.43,0,0,0-2.41,2l-.9,5.51h-2.71Z"/><path class="cls-1" d="M224.08,8.71h2.7l-1.62,9.74h-2.7Zm.32-2.64A1.64,1.64,0,0,1,226,4.71a1.23,1.23,0,0,1,1.3,1.36,1.64,1.64,0,0,1-1.62,1.37A1.24,1.24,0,0,1,224.4,6.07Z"/><path class="cls-1" d="M227.73,13.62a5.63,5.63,0,0,1,5.62-5c2.55,0,4,1.48,3.73,3.73h-2.54a1.43,1.43,0,0,0-1.49-1.62c-1.27,0-2.28,1.05-2.57,2.89s.33,2.93,1.59,2.93a2.14,2.14,0,0,0,2.05-1.63h2.55a4.83,4.83,0,0,1-5,3.76C228.69,18.64,227.23,16.58,227.73,13.62Z"/><path class="cls-1" d="M245.68,8.71h2.7l-1.62,9.74h-2.6l.29-1.77h-.1a3.61,3.61,0,0,1-3.27,1.9c-2,0-3.06-1.39-2.69-3.67l1-6.2h2.7l-.95,5.72c-.18,1.15.36,1.87,1.38,1.87a2.25,2.25,0,0,0,2.19-2Z"/><path class="cls-1" d="M251.62,18.45h-2.71l2.16-13h2.7Z"/><path class="cls-1" d="M260.24,10.74H258.4l-.78,4.72c-.13.75.22.95.76.95a3.51,3.51,0,0,0,.68-.09l.1,2a5.25,5.25,0,0,1-1.51.26c-2,.07-3.13-.87-2.79-2.77l.84-5.08h-1.33l.34-2H256l.38-2.33h2.71l-.39,2.33h1.84Z"/><path class="cls-1" d="M268.58,8.71h2.7l-1.62,9.74h-2.59l.29-1.77h-.1a3.62,3.62,0,0,1-3.28,1.9c-2,0-3.05-1.39-2.69-3.67l1-6.2H265l-1,5.72c-.18,1.15.36,1.87,1.39,1.87a2.24,2.24,0,0,0,2.18-2Z"/><path class="cls-1" d="M273.44,8.71h2.62l-.29,1.7h.11a2.92,2.92,0,0,1,2.65-1.84,3.7,3.7,0,0,1,.83.09l-.41,2.4a4.26,4.26,0,0,0-1.12-.14,2.42,2.42,0,0,0-2.4,2l-.91,5.51h-2.7Z"/><path class="cls-1" d="M278.86,15.73c.36-2.17,2.2-2.82,4.16-3,1.7-.17,2.4-.25,2.51-.87v0c.13-.8-.3-1.26-1.22-1.26a2,2,0,0,0-1.95,1.12l-2.46-.2a4.72,4.72,0,0,1,4.74-2.9c2.15,0,4,1,3.58,3.3l-1.1,6.57h-2.56l.23-1.35h-.08a3.59,3.59,0,0,1-3.1,1.54C279.76,18.64,278.54,17.65,278.86,15.73ZM285,15l.17-1a7.77,7.77,0,0,1-1.94.43c-1,.14-1.68.51-1.8,1.27s.4,1.13,1.24,1.13A2.28,2.28,0,0,0,285,15Z"/><path class="cls-1" d="M295.57,5.46h8.6l-.38,2.27h-5.85l-.51,3.09h5.28l-.38,2.27h-5.28l-.89,5.36h-2.75Z"/><path class="cls-1" d="M303.69,15.73c.37-2.17,2.2-2.82,4.16-3,1.71-.17,2.4-.25,2.51-.87v0c.13-.8-.3-1.26-1.22-1.26a2,2,0,0,0-1.94,1.12l-2.46-.2a4.71,4.71,0,0,1,4.73-2.9c2.15,0,4,1,3.58,3.3L312,18.45h-2.56l.23-1.35h-.08a3.59,3.59,0,0,1-3.1,1.54C304.59,18.64,303.37,17.65,303.69,15.73Zm6.16-.76.17-1a7.77,7.77,0,0,1-1.94.43c-1,.14-1.68.51-1.8,1.27s.4,1.13,1.25,1.13A2.28,2.28,0,0,0,309.85,15Z"/><path class="cls-1" d="M315.7,8.71h2.56L318,10.43h.1a3.35,3.35,0,0,1,3-1.85,2.12,2.12,0,0,1,2.33,1.85h.1a3.59,3.59,0,0,1,3.24-1.85c1.8,0,2.88,1.21,2.52,3.32l-1.09,6.55h-2.7l1-6c.17-1.08-.38-1.62-1.25-1.62a1.82,1.82,0,0,0-1.82,1.69l-1,5.95h-2.62l1-6.07a1.21,1.21,0,0,0-1.25-1.57,2,2,0,0,0-1.86,1.8l-1,5.84h-2.7Z"/><path class="cls-1" d="M332,8.71h2.71L333,18.45h-2.7Zm.32-2.64a1.64,1.64,0,0,1,1.62-1.36,1.24,1.24,0,0,1,1.31,1.36,1.65,1.65,0,0,1-1.62,1.37A1.24,1.24,0,0,1,332.28,6.07Z"/><path class="cls-1" d="M337.9,18.45h-2.7l2.16-13h2.7Z"/><path class="cls-1" d="M341.68,8.71h2.7l-1.62,9.74h-2.7ZM342,6.07a1.64,1.64,0,0,1,1.62-1.36,1.23,1.23,0,0,1,1.3,1.36,1.64,1.64,0,0,1-1.61,1.37A1.24,1.24,0,0,1,342,6.07Z"/><path class="cls-1" d="M344.92,15.73c.36-2.17,2.2-2.82,4.16-3,1.7-.17,2.4-.25,2.51-.87v0c.13-.8-.3-1.26-1.22-1.26a2,2,0,0,0-1.95,1.12l-2.46-.2a4.72,4.72,0,0,1,4.73-2.9c2.16,0,4,1,3.59,3.3l-1.1,6.57h-2.56l.23-1.35h-.08a3.59,3.59,0,0,1-3.1,1.54C345.82,18.64,344.6,17.65,344.92,15.73Zm6.16-.76.17-1a7.77,7.77,0,0,1-1.94.43c-1,.14-1.68.51-1.8,1.27s.4,1.13,1.24,1.13A2.29,2.29,0,0,0,351.08,15Z"/><path class="cls-1" d="M356.9,8.71h2.62l-.28,1.7h.1A2.93,2.93,0,0,1,362,8.57a3.64,3.64,0,0,1,.83.09l-.4,2.4a4.4,4.4,0,0,0-1.13-.14,2.42,2.42,0,0,0-2.4,2L358,18.45h-2.7Z"/></g></g></svg>