<svg id="svg2" xmlns="http://www.w3.org/2000/svg" viewBox="0 0 332.05 122.57"><defs><style>.cls-1{fill:#007937;}.cls-2{fill:#0f408f;}</style></defs><title>embrapa-logo</title><g id="g214"><path id="path216" class="cls-1" d="M284.38,151.38l-3.51,16.31H265.45L272,137.41a90.18,90.18,0,0,0,1.73-10.5h15.7L288,134.54h.14c3.28-6.72,8.79-9,15.63-8.86l-2.84,13.13c-1.14-.09-2.18-.09-3.29-.09-8.06.09-11.83,4.9-13.26,12.66m59.08,16.31-3.61-17L338,159.36c-.33,1.74-.43,3.53-.87,8.33H322.29a24.6,24.6,0,0,1,.85-5.46H323a18.25,18.25,0,0,1-14.47,6.71c-9.67,0-13.59-5.15-11.66-13.55,2.35-9.94,12.31-14,25.65-14h4.89c.79-3.58,2.72-8.77-3.52-8.52-3.78.15-5.8,3.81-6.24,6.23H303.07a14.56,14.56,0,0,1,9.46-10.94c4.66-2,10-2.47,14.56-2.47a26.84,26.84,0,0,1,7.68,1.07l-1.11-5.24C329.51,101.92,309.7,86,290.15,86h-76L224,132.49,229,109h15.46l-4.8,22.19h.19a19.8,19.8,0,0,1,13.62-5.53c12.55,0,16.11,9.43,13.64,21-2.67,12.43-10.36,22.26-23.82,22.26-4.79,0-9.69-3.13-9.87-7.19h-.32l-1.72,5.94,1.15,5.4c4.17,19.58,23.94,35.49,43.47,35.49h76.13Z" transform="translate(-99.28 -86.02)"/></g><g id="g218"><path id="path220" class="cls-1" d="M251.13,147.17c1.09-5,2-12.53-4.61-12.53-7,0-9.27,7.83-10.42,13.27-1,4.56-1.23,12.11,4.39,12.11,6.78,0,9.51-7.55,10.64-12.85" transform="translate(-99.28 -86.02)"/></g><g id="g222"><path id="path224" class="cls-1" d="M312,154.66a4.16,4.16,0,0,0,4.11,5.35c6.7,0,8.58-6.24,9.77-11.7-3.27,0-6.29-.2-8.66.89-2.54,1.12-4.61,2.58-5.22,5.46" transform="translate(-99.28 -86.02)"/></g><g id="g226"><path id="path228" class="cls-2" d="M425.57,167.68c.5-4.79.55-6.57.9-8.32l4.55-21c2.13-9.16-7.14-12.69-15.41-12.69-4.57,0-9.95.49-14.61,2.48a14.53,14.53,0,0,0-9.47,11h14.56c.45-2.44,2.49-6.1,6.24-6.25,6.25-.24,4.31,5,3.52,8.51H411c-13.39,0-23.35,4.08-25.69,14-1.93,8.41,2,13.54,11.66,13.54a18.19,18.19,0,0,0,14.48-6.7h.18a23.34,23.34,0,0,0-.88,5.46h14.81Zm-25.08-13c.6-2.88,2.72-4.34,5.27-5.46,2.31-1.09,5.38-.89,8.62-.89-1.19,5.46-3.08,11.7-9.77,11.7-2.92,0-4.75-2.42-4.12-5.35" transform="translate(-99.28 -86.02)"/></g><g id="g230"><path id="path232" class="cls-2" d="M144,167.68l2.43-11.32H118l2.69-12.45h26.14l2.5-11.42H123.11l2.63-12.08h28.5L156.67,109H111.91L99.28,167.68Z" transform="translate(-99.28 -86.02)"/></g><g id="g234"><path id="path236" class="cls-2" d="M364.77,134.63c6.49,0,5.84,7.49,4.71,12.69S365.82,160,359.27,160s-5.86-7.47-4.76-12.7,3.72-12.69,10.26-12.69m-5.85-7.74H343.45L331.31,183.3h15.46l4.41-20.41h.16a11.79,11.79,0,0,0,10.26,6.05c13.07,0,21.29-10.22,23.88-22.16,2.32-10.75-.73-21.1-12.89-21.1-6,0-10.64,2.22-14.78,7h-.13Z" transform="translate(-99.28 -86.02)"/></g><g id="g238"><path id="path240" class="cls-2" d="M212.2,125.67A21.41,21.41,0,0,0,196,133.48c-.64-4.93-5.72-7.55-10.67-7.55-6.09,0-11.94,2.13-16,7.71h-.15l1.24-6.73H155.15a98.1,98.1,0,0,1-1.79,10.49l-6.55,30.29h15.48l5-23.38c.1-.51,1-8.86,8.56-8.86,4.83,0,4.88,4.3,4.17,8.31l-5.15,23.93h15.47l5-23.38c.13-.51.93-8.86,8.61-8.86,4.76,0,4.8,4.3,4.13,8.31L203,167.69H216.4L224,132.52c-1.66-4.37-5.95-6.85-11.75-6.85" transform="translate(-99.28 -86.02)"/></g></svg>