<svg xmlns="http://www.w3.org/2000/svg" viewBox="0 0 148.04 134.32"><defs><style>.cls-1{fill:#fff;}</style></defs><g id="Camada_2" data-name="Camada 2"><g id="Camada_1-2" data-name="Camada 1"><path class="cls-1" d="M148,60.23V56.51h-3.59a74.23,74.23,0,0,0-11.53.94,28.32,28.32,0,0,0-14.7-18.72,21.47,21.47,0,0,0,8-11.44,21.24,21.24,0,0,0,7.35,1.31V21.45a14.32,14.32,0,0,1-6.6-1.63,21.42,21.42,0,0,0-42.71-.1,14.27,14.27,0,0,1-6.79,1.73v7.16A21.31,21.31,0,0,0,85,27.24,21.47,21.47,0,0,0,93,38.7a27.53,27.53,0,0,0-5.3,3.48,17.69,17.69,0,0,0-27.8-.28,27.71,27.71,0,0,0-4.94-3.18,21.42,21.42,0,0,0,8.8-17.28,21.19,21.19,0,0,0-1.3-7.27h7.86V7H58.09A21.34,21.34,0,0,0,26.45,7H14.23v7.15h7.89a21.3,21.3,0,0,0,7.54,24.57A28.3,28.3,0,0,0,15,57.43a74.89,74.89,0,0,0-11.38-.91L0,56.42v3.81a74.14,74.14,0,0,0,70.67,73.92v.1h3.17l3.53.08v-.17A74.15,74.15,0,0,0,148,60.23ZM91.34,21.69A21.29,21.29,0,0,0,105.5,7.16h.12a21.5,21.5,0,0,0,14.26,14.58,14.13,14.13,0,0,1-.11,1.46l-.19.22.14.11a14.28,14.28,0,0,1-14,12.18h-.29A14.29,14.29,0,0,1,91.34,21.69Zm14.15,21.18h.25a21,21,0,0,1,20.18,16.06A74.13,74.13,0,0,0,93.65,77a21.54,21.54,0,0,0-8.88-10.19,17.83,17.83,0,0,0,4.65-5.73,21.44,21.44,0,0,0,9.24,2.1V56a14.23,14.23,0,0,1-7.32-2c0-.32,0-.65,0-1a17.67,17.67,0,0,0-.5-4.08A20.71,20.71,0,0,1,105.49,42.87ZM83.26,48.65a10.36,10.36,0,0,1,1,4.38A10.59,10.59,0,1,1,64,48.78a17.79,17.79,0,0,0,9.71-6.33l.39,0A17.79,17.79,0,0,0,83.26,48.65ZM73.87,71a14.32,14.32,0,0,1,14,11.4L88,83a74,74,0,0,0-14,25.48,74.17,74.17,0,0,0-14.2-25.73l.18-.94A14.24,14.24,0,0,1,73.87,71ZM28,21.44a14.2,14.2,0,0,1,2-7.27H54.54A14.24,14.24,0,0,1,42.43,35.71h-.29A14.29,14.29,0,0,1,28,21.44ZM42.14,42.87h.25a20.89,20.89,0,0,1,14.13,5.61A17.59,17.59,0,0,0,55.9,53c0,.49,0,1,.08,1.46A14.36,14.36,0,0,1,49.53,56V63.2A21.39,21.39,0,0,0,58,61.42,17.74,17.74,0,0,0,62.7,67a21.39,21.39,0,0,0-8.54,9.85A74,74,0,0,0,22,58.89,21,21,0,0,1,42.14,42.87ZM7.25,63.79A67,67,0,0,1,70.12,127,67,67,0,0,1,7.25,63.79ZM77.92,127a67,67,0,0,1,62.87-63.18A67,67,0,0,1,77.92,127Z"/></g></g></svg>